<svg xmlns="http://www.w3.org/2000/svg" xmlns:xlink="http://www.w3.org/1999/xlink" width="500" zoomAndPan="magnify" viewBox="0 0 375 374.999991" height="500" preserveAspectRatio="xMidYMid meet" version="1.0"><defs><g/><clipPath id="8255f36a27"><path d="M 21.605469 21.605469 L 353 21.605469 L 353 353.105469 L 21.605469 353.105469 Z M 21.605469 21.605469 " clip-rule="nonzero"/></clipPath><clipPath id="a431f01a7c"><path d="M 116 99.074219 L 259.207031 99.074219 L 259.207031 276.074219 L 116 276.074219 Z M 116 99.074219 " clip-rule="nonzero"/></clipPath></defs><g clip-path="url(#8255f36a27)"><path fill="#ffde59" d="M 187.300781 353.105469 C 95.984375 353.105469 21.605469 278.730469 21.605469 187.300781 C 21.605469 95.871094 95.984375 21.605469 187.300781 21.605469 C 278.617188 21.605469 352.992188 95.984375 352.992188 187.300781 C 353.105469 278.730469 278.730469 353.105469 187.300781 353.105469 Z M 187.300781 24.410156 C 97.441406 24.410156 24.410156 97.441406 24.410156 187.300781 C 24.410156 277.160156 97.554688 350.300781 187.300781 350.300781 C 277.046875 350.300781 350.300781 277.160156 350.300781 187.300781 C 350.300781 97.441406 277.160156 24.410156 187.300781 24.410156 Z M 187.300781 24.410156 " fill-opacity="1" fill-rule="nonzero"/></g><g clip-path="url(#a431f01a7c)"><path fill="#ffde59" d="M 210.425781 146.984375 C 203.261719 144.519531 195.605469 143.15625 187.625 143.15625 C 179.648438 143.15625 171.992188 144.519531 164.824219 146.984375 C 161.542969 142.183594 159.585938 136.582031 159.585938 131.101562 C 159.585938 124.304688 162.585938 120.726562 167.429688 118.828125 C 168.527344 119.960938 170.054688 120.664062 171.75 120.664062 C 174.257812 120.664062 176.410156 119.132812 177.308594 116.953125 C 178.820312 116.847656 180.378906 116.785156 181.996094 116.75 C 182.851562 119.03125 185.039062 120.664062 187.625 120.664062 C 190.214844 120.664062 192.402344 119.03125 193.257812 116.75 C 194.871094 116.785156 196.433594 116.847656 197.941406 116.953125 C 198.84375 119.132812 200.996094 120.664062 203.503906 120.664062 C 205.199219 120.664062 206.722656 119.960938 207.820312 118.828125 C 212.675781 120.726562 215.664062 124.304688 215.664062 131.101562 C 215.664062 136.582031 213.71875 142.183594 210.425781 146.984375 Z M 224.570312 153.691406 C 230.453125 145.53125 233.976562 135.851562 233.976562 126.402344 C 233.976562 103.339844 213.230469 99.066406 187.625 99.066406 C 162.023438 99.066406 141.277344 103.339844 141.277344 126.402344 C 141.277344 135.851562 144.800781 145.53125 150.679688 153.691406 C 130.003906 166.519531 116.179688 186.246094 116.179688 212.8125 C 116.179688 244.566406 135.367188 276.085938 187.625 276.085938 C 238.5625 276.085938 259.070312 243.683594 259.070312 212.8125 C 259.070312 186.246094 245.257812 166.519531 224.570312 153.691406 " fill-opacity="1" fill-rule="nonzero"/></g><path fill="#ffde59" d="M 242.820312 181.875 C 250.003906 194.738281 251.253906 207.71875 245.621094 210.871094 C 239.984375 214.007812 229.585938 206.132812 222.402344 193.265625 C 215.21875 180.410156 213.96875 167.429688 219.601562 164.28125 C 225.242188 161.140625 235.628906 169.019531 242.820312 181.875 " fill-opacity="1" fill-rule="nonzero"/><path fill="#0b1986" d="M 191.425781 229.679688 C 191.183594 229.679688 190.9375 229.667969 190.6875 229.648438 C 182.945312 229.027344 180.9375 218.988281 176.9375 198.988281 C 176.238281 195.503906 175.339844 191.007812 174.382812 186.816406 C 174.355469 187.433594 174.328125 188.023438 174.304688 188.570312 C 174.042969 194.488281 173.792969 200.078125 172.425781 203.886719 C 171.703125 205.894531 169.984375 207.378906 167.894531 207.792969 C 158.070312 209.738281 60.769531 208.339844 52.574219 207.898438 C 49.226562 207.71875 46.660156 204.855469 46.839844 201.5 C 47.023438 198.148438 49.878906 195.570312 53.226562 195.753906 C 63.445312 196.304688 142.15625 197.191406 161.664062 196.199219 C 161.925781 193.757812 162.0625 190.691406 162.183594 188.027344 C 162.613281 178.386719 162.984375 170.0625 167.566406 166.003906 C 169.386719 164.398438 171.714844 163.617188 174.128906 163.8125 C 182.074219 164.449219 184.378906 174.324219 188.835938 196.597656 C 189.726562 201.054688 190.875 206.789062 192.011719 211.375 C 194.433594 204.859375 197.117188 195.609375 198.6875 190.203125 C 199.949219 185.84375 201.042969 182.078125 201.992188 179.226562 C 203.25 175.453125 205 170.296875 210.328125 170.714844 C 215.050781 171.09375 216.472656 174.917969 219.296875 182.542969 C 220.675781 186.257812 224.253906 195.914062 226.675781 197.96875 C 253.625 198.84375 280.535156 198.703125 322.238281 197.484375 C 325.617188 197.433594 328.382812 200.03125 328.480469 203.386719 C 328.578125 206.746094 325.941406 209.546875 322.589844 209.644531 C 280.167969 210.882812 252.917969 211.007812 225.40625 210.097656 C 225.25 210.09375 225.101562 210.082031 224.949219 210.066406 C 218.003906 209.308594 213.800781 201.667969 210.421875 193.316406 C 210.390625 193.410156 210.363281 193.503906 210.339844 193.597656 C 202.828125 219.46875 199.121094 229.679688 191.425781 229.679688 Z M 191.425781 229.679688 " fill-opacity="1" fill-rule="nonzero"/><path fill="#ffde59" d="M 61.621094 188.96875 C 63.320312 188.929688 64.691406 188.890625 65.722656 191.160156 C 66.515625 192.898438 65.929688 194.636719 65.921875 196.496094 C 65.910156 200.75 66.046875 204.921875 66.007812 209.09375 C 65.984375 211.777344 66.792969 212.859375 64.007812 213.679688 C 62.078125 214.242188 59.613281 213.996094 57.558594 213.941406 C 53.375 213.828125 54.878906 209.085938 55.121094 205.410156 C 55.5625 198.714844 52.769531 188.613281 58.867188 188.988281 Z M 61.621094 188.96875 " fill-opacity="1" fill-rule="nonzero"/><path fill="#ffde59" d="M 68.566406 175.742188 C 65.175781 175.667969 62.4375 175.589844 60.378906 180.117188 C 58.800781 183.589844 59.96875 187.054688 59.980469 190.765625 C 60.011719 199.261719 59.734375 207.582031 59.808594 215.90625 C 59.859375 221.269531 58.242188 223.429688 63.804688 225.058594 C 67.65625 226.1875 72.574219 225.695312 76.671875 225.585938 C 85.023438 225.363281 82.027344 215.894531 81.542969 208.558594 C 80.660156 195.195312 86.230469 175.03125 74.0625 175.777344 Z M 68.566406 175.742188 " fill-opacity="1" fill-rule="nonzero"/><path fill="#ffde59" d="M 83.492188 155.785156 C 77.394531 155.648438 72.472656 155.511719 68.769531 163.65625 C 65.929688 169.898438 68.03125 176.125 68.054688 182.800781 C 68.105469 198.074219 67.609375 213.03125 67.746094 228 C 67.835938 237.636719 64.933594 241.523438 74.929688 244.453125 C 81.855469 246.480469 90.691406 245.59375 98.066406 245.398438 C 113.082031 245 107.691406 227.980469 106.820312 214.785156 C 105.234375 190.765625 115.246094 154.515625 93.371094 155.855469 Z M 83.492188 155.785156 " fill-opacity="1" fill-rule="nonzero"/><path fill="#ffde59" d="M 103.019531 171.9375 C 103.019531 171.871094 103.019531 171.800781 103.003906 171.726562 C 101.996094 166.710938 99.921875 162.144531 94.867188 160.230469 C 92.632812 159.378906 89.738281 159.164062 87.617188 160.457031 C 85.347656 161.839844 87.367188 163.84375 88.90625 164.683594 C 91.097656 165.882812 93.535156 166.765625 95.269531 168.644531 C 97.246094 170.785156 97.140625 173.332031 97.851562 175.96875 C 98.382812 177.941406 100.84375 178.921875 102.230469 177.09375 C 103.410156 175.542969 103.101562 173.753906 103.019531 171.9375 Z M 103.019531 171.9375 " fill-opacity="1" fill-rule="nonzero"/><path fill="#ffde59" d="M 316.820312 189.753906 C 318.519531 189.714844 319.890625 189.675781 320.921875 191.945312 C 321.714844 193.6875 321.128906 195.421875 321.121094 197.28125 C 321.109375 201.539062 321.246094 205.707031 321.207031 209.878906 C 321.183594 212.5625 321.992188 213.648438 319.207031 214.464844 C 317.277344 215.03125 314.8125 214.78125 312.757812 214.726562 C 308.574219 214.617188 310.078125 209.871094 310.320312 206.195312 C 310.761719 199.5 307.972656 189.398438 314.066406 189.773438 Z M 316.820312 189.753906 " fill-opacity="1" fill-rule="nonzero"/><path fill="#ffde59" d="M 307.8125 176.8125 C 311.207031 176.738281 313.941406 176.664062 316 181.191406 C 317.582031 184.664062 316.414062 188.125 316.398438 191.839844 C 316.371094 200.332031 316.644531 208.65625 316.570312 216.980469 C 316.519531 222.34375 318.136719 224.503906 312.574219 226.132812 C 308.722656 227.261719 303.804688 226.765625 299.707031 226.65625 C 291.355469 226.433594 294.355469 216.96875 294.835938 209.628906 C 295.71875 196.269531 290.152344 176.105469 302.316406 176.851562 Z M 307.8125 176.8125 " fill-opacity="1" fill-rule="nonzero"/><path fill="#ffde59" d="M 292.886719 156.855469 C 298.988281 156.71875 303.90625 156.582031 307.609375 164.726562 C 310.449219 170.96875 308.347656 177.195312 308.324219 183.871094 C 308.273438 199.144531 308.769531 214.105469 308.632812 229.070312 C 308.542969 238.710938 311.445312 242.59375 301.449219 245.523438 C 294.523438 247.554688 285.6875 246.664062 278.316406 246.46875 C 263.296875 246.070312 268.691406 229.050781 269.558594 215.859375 C 271.144531 191.835938 261.132812 155.585938 283.007812 156.929688 Z M 292.886719 156.855469 " fill-opacity="1" fill-rule="nonzero"/><path fill="#ffde59" d="M 273.363281 173.007812 C 273.359375 172.941406 273.359375 172.871094 273.375 172.796875 C 274.382812 167.78125 276.460938 163.21875 281.511719 161.300781 C 283.746094 160.453125 286.640625 160.234375 288.761719 161.527344 C 291.03125 162.910156 289.011719 164.914062 287.472656 165.757812 C 285.28125 166.957031 282.84375 167.835938 281.109375 169.714844 C 279.132812 171.859375 279.238281 174.40625 278.527344 177.039062 C 277.996094 179.011719 275.535156 179.992188 274.148438 178.164062 C 272.96875 176.613281 273.277344 174.828125 273.363281 173.007812 Z M 273.363281 173.007812 " fill-opacity="1" fill-rule="nonzero"/><g fill="#ffde59" fill-opacity="1"><g transform="translate(68.956919, 145.861865)"><g><path d="M 10.90625 -20.9375 L 3.109375 -25 C 2.140625 -25.507812 1.160156 -26.0625 0.171875 -26.65625 C -0.804688 -27.257812 -1.617188 -27.785156 -2.265625 -28.234375 C -2.910156 -28.679688 -3.320312 -28.960938 -3.5 -29.078125 L -3.578125 -28.953125 L 9.015625 -17.328125 L 6.1875 -11.875 L -10.5625 -15.46875 L -10.625 -15.34375 C -10.425781 -15.269531 -9.960938 -15.097656 -9.234375 -14.828125 C -8.503906 -14.566406 -7.601562 -14.210938 -6.53125 -13.765625 C -5.46875 -13.328125 -4.453125 -12.851562 -3.484375 -12.34375 L 4.3125 -8.28125 L 0.984375 -1.890625 L -20.671875 -13.171875 L -15.5625 -22.984375 L -1.359375 -19.75 L -1.28125 -19.890625 L -12.09375 -29.640625 L -7.15625 -39.109375 L 14.5 -27.828125 Z M 10.90625 -20.9375 "/></g></g></g><g fill="#ffde59" fill-opacity="1"><g transform="translate(91.640693, 107.437184)"><g><path d="M 12.953125 -12.1875 L 7.234375 -6.8125 L 0.734375 -13.71875 L -16.546875 -17.953125 L -9.984375 -24.125 L -1.015625 -21.421875 L -0.90625 -21.515625 L -3.0625 -30.65625 L 3.171875 -36.515625 L 6.453125 -19.09375 Z M 12.953125 -12.1875 "/></g></g></g><g fill="#ffde59" fill-opacity="1"><g transform="translate(121.24224, 82.037162)"><g><path d="M 6.640625 -30.15625 C 7.753906 -30.675781 8.882812 -30.925781 10.03125 -30.90625 C 11.1875 -30.894531 12.234375 -30.597656 13.171875 -30.015625 C 14.109375 -29.441406 14.816406 -28.640625 15.296875 -27.609375 C 16.578125 -24.898438 16.15625 -22.609375 14.03125 -20.734375 L 14.09375 -20.609375 C 17.207031 -21.273438 19.476562 -20.09375 20.90625 -17.0625 C 21.457031 -15.90625 21.65625 -14.75 21.5 -13.59375 C 21.351562 -12.445312 20.90625 -11.390625 20.15625 -10.421875 C 19.40625 -9.460938 18.441406 -8.707031 17.265625 -8.15625 L 2.375 -1.125 L -8.0625 -23.203125 Z M 3.09375 -17.953125 L 7.984375 -20.265625 C 8.453125 -20.484375 8.757812 -20.832031 8.90625 -21.3125 C 9.0625 -21.789062 9.023438 -22.273438 8.796875 -22.765625 L 8.640625 -23.09375 C 8.421875 -23.5625 8.070312 -23.882812 7.59375 -24.0625 C 7.113281 -24.238281 6.65625 -24.222656 6.21875 -24.015625 L 1.328125 -21.703125 Z M 7.03125 -9.609375 L 12.421875 -12.15625 C 12.890625 -12.382812 13.203125 -12.734375 13.359375 -13.203125 C 13.523438 -13.679688 13.488281 -14.164062 13.25 -14.65625 L 13.109375 -14.984375 C 12.867188 -15.472656 12.515625 -15.8125 12.046875 -16 C 11.578125 -16.1875 11.109375 -16.164062 10.640625 -15.9375 L 5.25 -13.390625 Z M 7.03125 -9.609375 "/></g></g></g><g fill="#ffde59" fill-opacity="1"><g transform="translate(157.237526, 67.01211)"><g><path d="M 23.453125 -20.078125 C 23.640625 -18.597656 23.410156 -17.207031 22.765625 -15.90625 C 22.117188 -14.613281 21.070312 -13.585938 19.625 -12.828125 L 26.296875 -3.375 L 17.578125 -2.25 L 12.140625 -10.53125 L 9.25 -10.15625 L 10.390625 -1.328125 L 2.609375 -0.328125 L -0.5 -24.546875 L 14.328125 -26.453125 C 16.054688 -26.679688 17.578125 -26.539062 18.890625 -26.03125 C 20.210938 -25.519531 21.257812 -24.734375 22.03125 -23.671875 C 22.8125 -22.609375 23.285156 -21.410156 23.453125 -20.078125 Z M 15.578125 -18.734375 C 15.492188 -19.378906 15.207031 -19.882812 14.71875 -20.25 C 14.238281 -20.613281 13.695312 -20.753906 13.09375 -20.671875 L 7.984375 -20.015625 L 8.5625 -15.5625 L 13.671875 -16.21875 C 14.273438 -16.300781 14.757812 -16.582031 15.125 -17.0625 C 15.5 -17.550781 15.648438 -18.109375 15.578125 -18.734375 Z M 15.578125 -18.734375 "/></g></g></g><g fill="#ffde59" fill-opacity="1"><g transform="translate(196.049445, 63.711496)"><g><path d="M 28.328125 -4.46875 C 27.679688 -1.195312 26.15625 1.085938 23.75 2.390625 C 21.351562 3.703125 18.25 3.988281 14.4375 3.25 C 10.632812 2.5 7.859375 1.066406 6.109375 -1.046875 C 4.367188 -3.171875 3.820312 -5.867188 4.46875 -9.140625 L 7.265625 -23.46875 L 14.96875 -21.953125 L 12.1875 -7.734375 C 11.925781 -6.390625 12.078125 -5.25 12.640625 -4.3125 C 13.203125 -3.375 14.164062 -2.773438 15.53125 -2.515625 C 16.90625 -2.242188 18.035156 -2.441406 18.921875 -3.109375 C 19.804688 -3.773438 20.378906 -4.765625 20.640625 -6.078125 L 23.421875 -20.296875 L 31.125 -18.796875 Z M 28.328125 -4.46875 "/></g></g></g><g fill="#ffde59" fill-opacity="1"><g transform="translate(235.706838, 73.358223)"><g><path d="M 17.421875 10 L 14.421875 -5.390625 L 8.515625 4.890625 L 2.28125 1.3125 L 14.4375 -19.859375 L 20.375 -16.453125 L 23.28125 -0.921875 L 29.265625 -11.34375 L 35.515625 -7.75 L 23.359375 13.421875 Z M 17.421875 10 "/></g></g></g><g fill="#ffde59" fill-opacity="1"><g transform="translate(270.102148, 95.533364)"><g><path d="M 19.875 -14.4375 L 34.046875 1.21875 L 29.703125 5.15625 L 20.796875 -4.6875 L 18.28125 -2.421875 L 25.90625 5.984375 L 21.75 9.75 L 14.125 1.34375 L 11.375 3.828125 L 20.453125 13.859375 L 16.109375 17.796875 L 1.765625 1.953125 Z M 19.875 -14.4375 "/></g></g></g><g fill="#ffde59" fill-opacity="1"><g transform="translate(293.697306, 124.326671)"><g><path d="M 23.171875 -8.109375 L 26.546875 -1.03125 L 10.140625 6.765625 L 15.515625 18.078125 L 9.875 20.765625 L 1.125 2.375 Z M 23.171875 -8.109375 "/></g></g></g><g fill="#ffde59" fill-opacity="1"><g transform="translate(142.749991, 334.556828)"><g><path d="M 17.0625 -16.296875 C 18.25 -16.023438 19.242188 -15.515625 20.046875 -14.765625 C 20.847656 -14.015625 21.398438 -13.101562 21.703125 -12.03125 C 22.003906 -10.957031 22.023438 -9.832031 21.765625 -8.65625 L 21.6875 -8.28125 C 21.414062 -7.09375 20.914062 -6.078125 20.1875 -5.234375 C 19.457031 -4.390625 18.566406 -3.789062 17.515625 -3.4375 C 16.472656 -3.09375 15.359375 -3.054688 14.171875 -3.328125 L 9.578125 -4.34375 L 8.203125 1.828125 L 2.0625 0.453125 L 6.328125 -18.6875 Z M 10.578125 -8.828125 L 13.109375 -8.265625 C 13.765625 -8.117188 14.289062 -8.175781 14.6875 -8.4375 C 15.082031 -8.695312 15.34375 -9.113281 15.46875 -9.6875 L 15.515625 -9.90625 C 15.648438 -10.507812 15.59375 -11.007812 15.34375 -11.40625 C 15.09375 -11.800781 14.640625 -12.070312 13.984375 -12.21875 L 11.453125 -12.78125 Z M 10.578125 -8.828125 "/></g></g></g><g fill="#ffde59" fill-opacity="1"><g transform="translate(176.885608, 340.621871)"><g><path d="M 15.25 -0.078125 L 14.40625 -2.84375 L 7.53125 -2.8125 L 6.71875 -0.03125 L 0.28125 0 L 7.328125 -19.640625 L 14.65625 -19.6875 L 21.921875 -0.109375 Z M 8.828125 -7.203125 L 13.078125 -7.21875 L 10.984375 -14.203125 L 10.859375 -14.203125 Z M 8.828125 -7.203125 "/></g></g></g><g fill="#ffde59" fill-opacity="1"><g transform="translate(213.031933, 338.722387)"><g><path d="M -2.296875 -19.59375 L 3.84375 -21 L 7.09375 -6.765625 L 16.890625 -9 L 18 -4.109375 L 2.0625 -0.46875 Z M -2.296875 -19.59375 "/></g></g></g></svg>